<svg xmlns="http://www.w3.org/2000/svg" viewBox="0 0 48 48" fill="none" stroke="#b08363" stroke-width="1.5" stroke-linecap="round" stroke-linejoin="round">
<defs>
<filter id="h1" x="-15%" y="-15%" width="130%" height="130%"><feTurbulence type="fractalNoise" baseFrequency="0.05" numOctaves="2" seed="4" result="n"/><feDisplacementMap in="SourceGraphic" in2="n" scale="1.9"/></filter>
<filter id="h2" x="-15%" y="-15%" width="130%" height="130%"><feTurbulence type="fractalNoise" baseFrequency="0.06" numOctaves="2" seed="11" result="n"/><feDisplacementMap in="SourceGraphic" in2="n" scale="2.4"/></filter>
</defs>
<g filter="url(#h1)">
<circle cx="24" cy="19.5" r="3.6"/>
<path d="M18.5,31.5 c0,-5 2.4,-7.2 5.5,-7.2 c3.1,0 5.5,2.2 5.5,7.2"/>
<circle cx="10.5" cy="12" r="2.4"/>
<circle cx="37.5" cy="12" r="2.4"/>
<circle cx="8.5" cy="30" r="2.4"/>
<circle cx="39.5" cy="30" r="2.4"/>
<circle cx="24" cy="41" r="2.4"/>
<g stroke-dasharray="1.5 3.5">
<line x1="12.5" y1="13.5" x2="19.5" y2="17"/>
<line x1="35.5" y1="13.5" x2="28.5" y2="17"/>
<line x1="11" y1="29.5" x2="17.5" y2="28"/>
<line x1="37" y1="29.5" x2="30.5" y2="28"/>
<line x1="24" y1="38.5" x2="24" y2="33.5"/>
</g>
</g>
<g filter="url(#h2)" opacity=".38">
<circle cx="24" cy="19.5" r="3.6"/>
<path d="M18.5,31.5 c0,-5 2.4,-7.2 5.5,-7.2 c3.1,0 5.5,2.2 5.5,7.2"/>
<circle cx="10.5" cy="12" r="2.4"/>
<circle cx="37.5" cy="12" r="2.4"/>
<circle cx="8.5" cy="30" r="2.4"/>
<circle cx="39.5" cy="30" r="2.4"/>
<circle cx="24" cy="41" r="2.4"/>
<g stroke-dasharray="1.5 3.5">
<line x1="12.5" y1="13.5" x2="19.5" y2="17"/>
<line x1="35.5" y1="13.5" x2="28.5" y2="17"/>
<line x1="11" y1="29.5" x2="17.5" y2="28"/>
<line x1="37" y1="29.5" x2="30.5" y2="28"/>
<line x1="24" y1="38.5" x2="24" y2="33.5"/>
</g>
</g>
</svg>