<svg xmlns="http://www.w3.org/2000/svg" viewBox="0 0 48 48" fill="none" stroke="#b08363" stroke-width="1.5" stroke-linecap="round" stroke-linejoin="round">
<defs>
<filter id="h1" x="-15%" y="-15%" width="130%" height="130%"><feTurbulence type="fractalNoise" baseFrequency="0.05" numOctaves="2" seed="4" result="n"/><feDisplacementMap in="SourceGraphic" in2="n" scale="1.9"/></filter>
<filter id="h2" x="-15%" y="-15%" width="130%" height="130%"><feTurbulence type="fractalNoise" baseFrequency="0.06" numOctaves="2" seed="11" result="n"/><feDisplacementMap in="SourceGraphic" in2="n" scale="2.4"/></filter>
</defs>
<g filter="url(#h1)">
<rect x="10" y="17" width="28" height="19" rx="3"/>
<path d="M18.5,17 v-3 c0,-2.1 1.7,-3.2 3.7,-3.2 h3.6 c2,0 3.7,1.1 3.7,3.2 v3"/>
<path d="M10,25.5 h11.5 M26.5,25.5 h11.5"/>
<rect x="21.5" y="23.2" width="5" height="4.6" rx="1.4"/>
</g>
<g filter="url(#h2)" opacity=".38">
<rect x="10" y="17" width="28" height="19" rx="3"/>
<path d="M18.5,17 v-3 c0,-2.1 1.7,-3.2 3.7,-3.2 h3.6 c2,0 3.7,1.1 3.7,3.2 v3"/>
<path d="M10,25.5 h11.5 M26.5,25.5 h11.5"/>
<rect x="21.5" y="23.2" width="5" height="4.6" rx="1.4"/>
</g>
</svg>