<svg xmlns="http://www.w3.org/2000/svg" viewBox="0 0 48 48" fill="none" stroke="#966c4a" stroke-width="1.6" stroke-linecap="round" stroke-linejoin="round">

<path d="M23,24.5 C18,14.5 8,12.5 8,19.5 C8,25.5 16,27.5 23,26.5"/>
<path d="M23,27.5 C17,28.5 12,34.5 15,37.5 C18,40.2 22.5,34 23,28.5"/>
<path d="M25,24.5 C30,14.5 40,12.5 40,19.5 C40,25.5 32,27.5 25,26.5"/>
<path d="M25,27.5 C31,28.5 36,34.5 33,37.5 C30,40.2 25.5,34 25,28.5"/>
<path d="M23.2,25 c0.8,-0.6 0.8,-0.6 1.6,0 l0,8 c-0.8,0.6 -0.8,0.6 -1.6,0 Z"/>
<path d="M23,22.5 C22,19 20.5,17 18.5,15 M25,22.5 C26,19 27.5,17 29.5,15"/>

</svg>