<svg xmlns="http://www.w3.org/2000/svg" viewBox="0 0 200 200" fill="none" stroke="#a97e58" stroke-width="2" stroke-linecap="round" stroke-linejoin="round">
<circle cx="100" cy="100" r="88"/>
<circle cx="99" cy="101" r="91" opacity=".45"/>
<circle cx="101" cy="99" r="85" opacity=".25"/>

<circle cx="100" cy="42" r="6.5"/><path d="M89,60 C89,48 111,48 111,60"/><path d="M92,64 Q100,69 108,64" opacity=".8"/>
<circle cx="52" cy="78" r="6.5"/><path d="M41,96 C41,84 63,84 63,96"/><path d="M44,100 Q52,105 60,100" opacity=".8"/>
<circle cx="148" cy="78" r="6.5"/><path d="M137,96 C137,84 159,84 159,96"/><path d="M140,100 Q148,105 156,100" opacity=".8"/>
<circle cx="66" cy="132" r="6.5"/><path d="M55,150 C55,138 77,138 77,150"/><path d="M58,154 Q66,159 74,154" opacity=".8"/>
<circle cx="134" cy="132" r="6.5"/><path d="M123,150 C123,138 145,138 145,150"/><path d="M126,154 Q134,159 142,154" opacity=".8"/>
<ellipse cx="100" cy="106" rx="24" ry="9"/>
<ellipse cx="100" cy="106" rx="14" ry="5" opacity=".7" stroke-dasharray="3 4"/>
<ellipse cx="100" cy="106" rx="5" ry="2" opacity=".5"/>

</svg>