<svg xmlns="http://www.w3.org/2000/svg" viewBox="0 0 200 200" fill="none" stroke="#a97e58" stroke-width="2" stroke-linecap="round" stroke-linejoin="round">
<circle cx="100" cy="100" r="88"/>
<circle cx="99" cy="101" r="91" opacity=".45"/>

<circle cx="100" cy="36" r="6"/><path d="M92,62 C92,47 108,47 108,62"/>
<circle cx="52" cy="88" r="6"/><path d="M44,114 C44,99 60,99 60,114"/>
<circle cx="148" cy="88" r="6"/><path d="M140,114 C140,99 156,99 156,114"/>
<circle cx="100" cy="140" r="6"/><path d="M92,166 C92,151 108,151 108,166"/>
<g stroke-dasharray="2 6" opacity=".8">
<line x1="88" y1="58" x2="64" y2="84"/>
<line x1="112" y1="58" x2="136" y2="84"/>
<line x1="64" y1="120" x2="88" y2="146"/>
<line x1="136" y1="120" x2="112" y2="146"/>
<line x1="100" y1="68" x2="100" y2="132"/>
<line x1="68" y1="102" x2="132" y2="102"/>
</g>

</svg>