<svg xmlns="http://www.w3.org/2000/svg" viewBox="0 0 200 200" fill="none" stroke="#a97e58" stroke-width="2" stroke-linecap="round" stroke-linejoin="round">
<circle cx="100" cy="100" r="88"/>
<circle cx="99" cy="101" r="91" opacity=".45"/>
<circle cx="101" cy="99" r="85" opacity=".25"/>

<circle cx="100" cy="28" r="6"/><path d="M93,64 C93,41 107,41 107,64"/>
<circle cx="50" cy="82" r="6"/><path d="M43,118 C43,95 57,95 57,118"/>
<circle cx="150" cy="82" r="6"/><path d="M143,118 C143,95 157,95 157,118"/>
<circle cx="100" cy="136" r="6"/><path d="M93,172 C93,149 107,149 107,172"/>
<g stroke-dasharray="2 6" opacity=".8">
<line x1="86" y1="58" x2="62" y2="86"/>
<line x1="114" y1="58" x2="138" y2="86"/>
<line x1="62" y1="118" x2="86" y2="146"/>
<line x1="138" y1="118" x2="114" y2="146"/>
<line x1="100" y1="70" x2="100" y2="130"/>
<line x1="64" y1="102" x2="136" y2="102"/>
</g>

</svg>