<svg xmlns="http://www.w3.org/2000/svg" viewBox="0 0 200 200" fill="none" stroke="#a97e58" stroke-width="2" stroke-linecap="round" stroke-linejoin="round">
<circle cx="100" cy="100" r="88"/>
<circle cx="99" cy="101" r="91" opacity=".45"/>

<circle cx="100" cy="60" r="13"/>
<path d="M72,140 C74,106 86,88 100,86 C114,88 126,106 128,140"/>
<path d="M107,104 c2,5 -3,10 -8,8 c-6,-2 -6,-10 -1,-13 c7,-4 15,2 14,10"/>
<path d="M74,104 C64,101 56,99 46,99" opacity=".85"/>
<path d="M77,117 C67,120 59,124 51,129" opacity=".85"/>
<path d="M80,90 C72,83 64,77 57,71" opacity=".85"/>
<path d="M126,104 C136,101 144,99 154,99" opacity=".85"/>
<path d="M123,117 C133,120 141,124 149,129" opacity=".85"/>
<path d="M120,90 C128,83 136,77 143,71" opacity=".85"/>

</svg>